<svg xmlns="http://www.w3.org/2000/svg" xmlns:xlink="http://www.w3.org/1999/xlink" viewBox="0 0 20 20"><defs><style>.cls-1{fill:#e6e7e8;}.cls-2{fill:#1c75bc;}.cls-3{fill:#a7a9ac;}.cls-4{fill:#d3d3d3;}.cls-5{fill:#fff;}.cls-6{opacity:0.7;}.cls-7{clip-path:url(#clip-path);}.cls-8{fill:#eaeae9;}.cls-9{fill:#2e416c;}.cls-10{fill:#7b97bc;}</style><clipPath id="clip-path"><rect id="SVGID" class="cls-1" x="10.17" y="4.3" width="6.18" height="6.18"/></clipPath></defs><title>dt</title><g id="图层_2" data-name="图层 2"><g id="图层_1-2" data-name="图层 1"><path class="cls-2" d="M20,10A10,10,0,1,1,10,0,10,10,0,0,1,20,10Z"/><path class="cls-1" d="M19.23,10A9.44,9.44,0,0,1,19,11.87c0,.19-.08.38-.13.56l0,.13a9.81,9.81,0,0,1-.44,1.22.59.59,0,0,0,0,.08c-.09.21-.2.41-.31.61a9.26,9.26,0,0,1-2.16,2.62,8.39,8.39,0,0,1-.82.62c-.31.2-.63.39-1,.56A9.3,9.3,0,0,1,5.28,18l-.61-.4-.13-.1a9.1,9.1,0,0,1-.83-.68,9.48,9.48,0,0,1-1-1A9.23,9.23,0,1,1,19.23,10Z"/><path class="cls-3" d="M18.43,13.78l0,0-.06.06c-.09.21-.2.41-.31.61l-2.16-2.16-.64-.64-.19-.08a.72.72,0,0,1-.25-.18l0,0a4.43,4.43,0,0,1-.68.28,3.81,3.81,0,0,1-3.26-.5H10v-.83a3.81,3.81,0,0,1-.54-1,3.41,3.41,0,0,1-.23-1c0-.11,0-.21,0-.32a4.44,4.44,0,0,1,.13-1c0-.09.05-.18.08-.26s.11-.28.17-.41A3.88,3.88,0,0,1,10,5.69V5h.7a3.83,3.83,0,0,1,4.65,0h.84v.88a3.81,3.81,0,0,1,.44,3.41l-.05.12a3.82,3.82,0,0,1-.21.46v0a1.05,1.05,0,0,1,.26.44l.1.1,2.05,2.05.09.09A9.81,9.81,0,0,1,18.43,13.78Z"/><path class="cls-3" d="M15.92,17.09a8.39,8.39,0,0,1-.82.62c-.31.2-.63.39-1,.56A9.3,9.3,0,0,1,5.28,18l-.61-.4-.13-.1V7H15.91V17.09Z"/><path class="cls-4" d="M15.1,17.71c-.31.2-.63.39-1,.56A9.3,9.3,0,0,1,5.28,18l-.61-.4-.13-.1a9.1,9.1,0,0,1-.83-.68V5.41H15.08V17.71Z"/><path class="cls-5" d="M14.14,18.27A9.3,9.3,0,0,1,5.28,18l-.61-.4-.13-.1a9.1,9.1,0,0,1-.83-.68,9.48,9.48,0,0,1-1-1l0-9.35H14.12V18.27Z"/><path class="cls-4" d="M12.86,10.32a2,2,0,0,1-2,2H6.31a2,2,0,0,1-2-2h0a2,2,0,0,1,2-2h4.54a2,2,0,0,1,2,2Z"/><rect class="cls-4" x="4.67" y="14" width="7.61" height="1.38"/><path class="cls-4" d="M12.29,16.57V18h-7l-.61-.4v-1Z"/><path class="cls-5" d="M6.39,11.59a9.19,9.19,0,0,0,.74-2.12H6.57c.36,1.09.69,2.19,1.09,3.26.09.24.5.31.55,0,.29-1.58.62-3.16,1-4.73H8.62c.36,1.7.5,3.43.89,5.12.06.22.43.3.53.07.45-1.06.86-2.13,1.25-3.21.12-.35-.43-.5-.56-.15-.37,1-.76,2.06-1.19,3.07l.53.07c-.4-1.69-.54-3.43-.9-5.12a.29.29,0,0,0-.55,0c-.34,1.57-.68,3.15-1,4.73h.55c-.4-1.07-.72-2.17-1.08-3.26a.29.29,0,0,0-.56,0,8.56,8.56,0,0,1-.67,2,.28.28,0,0,0,.49.29Z"/><g class="cls-6"><rect id="SVGID-2" data-name="SVGID" class="cls-1" x="10.17" y="4.3" width="6.18" height="6.18"/><g class="cls-7"><path class="cls-8" d="M15.54,5.3a3.09,3.09,0,1,1-4.37,0,3.08,3.08,0,0,1,4.37,0"/></g></g><path class="cls-9" d="M18.91,12.43l0,.13a9.81,9.81,0,0,1-.44,1.22.78.78,0,0,1,0-1.07l.07-.07a.7.7,0,0,1,.25-.17Z"/><path class="cls-10" d="M15.89,4.63a3.82,3.82,0,0,0-5.4,0,3.73,3.73,0,0,0-.32.36L10,5.24a1.4,1.4,0,0,1-.1.16,3.8,3.8,0,0,0-.39,1,2.71,2.71,0,0,0-.09.41,2.11,2.11,0,0,0,0,.26A3.69,3.69,0,0,0,9.5,8.31a3.9,3.9,0,0,0,1,1.72l.13.12a5.45,5.45,0,0,0,.47.37,3.88,3.88,0,0,0,1.61.59A3.83,3.83,0,0,0,14.13,11,4.4,4.4,0,0,0,15,10.7l.11-.06a3.86,3.86,0,0,0,.8-.61l0,0a4,4,0,0,0,.61-.82,4.8,4.8,0,0,0,.26-.57A3.8,3.8,0,0,0,15.89,4.63ZM15.2,9.34a.57.57,0,0,1-.11.11,2.53,2.53,0,0,1-.42.31,2.69,2.69,0,0,1-.54.26,2.85,2.85,0,0,1-3-.68,2.84,2.84,0,0,1-.66-1A2.79,2.79,0,0,1,10.36,7a2.51,2.51,0,0,1,.15-.67,2.72,2.72,0,0,1,.58-1l.08-.09a2.85,2.85,0,0,1,4.74,2.86,2.46,2.46,0,0,1-.31.68A2.32,2.32,0,0,1,15.2,9.34Z"/><path class="cls-10" d="M19,11.87c0,.19-.08.38-.13.56l0,.13a9.81,9.81,0,0,1-.44,1.22l0,0-.09.09-2.44-2.44L15.46,11h0l-.26-.25.72-.72.64-.64v0l.24.24h0Z"/><path class="cls-9" d="M16.54,9.19a1.06,1.06,0,0,1,0,1.49l0,0a1,1,0,0,1-1.49,0l0,0a1.06,1.06,0,0,1,0-1.49l0,0a1.06,1.06,0,0,1,1.49,0Z"/></g></g></svg>