<svg xmlns="http://www.w3.org/2000/svg" width="370.3" height="30.5" viewBox="0 0 370.3 30.5"><style>.st0{fill:#174675}</style><path class="st0" d="M10.9 9.6h2.8v1.3h5.5c0-.4.1-.8.1-1.3h2.6c0 .1.1.1.1.1-.1.9.4 1.6.9 2.3l6.9 8.1c.2.3.4.7.4 1.1v4.6c0 1.9-1.1 3-3 3H5.9c-1.9 0-3-1.1-3-3v-4.7c0-.3.2-.7.4-.9 2.2-2.6 4.3-5.1 6.5-7.6.5-1 1.5-1.7 1.1-3zm5.5 16.3c3 0 5.5-2.4 5.5-5.4 0-3-2.4-5.5-5.5-5.5-3 0-5.5 2.4-5.5 5.4 0 3.1 2.4 5.5 5.5 5.5z"/><path class="st0" d="M29.4 11.4c-.9-.2-1.8-.4-2.6-.7-1-.3-1.7-1.1-2-2.1-.4-1.1-1.1-1.7-2.2-2.1-4.3-1.5-8.5-1.4-12.7.1-.8.3-1.4.8-1.7 1.6-.9 2.2-3.5 3.5-5.9 2.9C.6 10.7-.3 9.3 0 7.5.4 5.9 1.4 4.8 2.9 4c1.7-1 3.6-1.5 5.5-1.8C14.5.9 20.6 1 26.7 2.7c1.3.3 2.5.9 3.6 1.5 1.4.8 2.3 2 2.4 3.7.1 2.1-1.1 3.3-3.3 3.5zM16.4 23.2c-1.5 0-2.7-1.2-2.7-2.7 0-1.5 1.2-2.7 2.7-2.7 1.5 0 2.7 1.2 2.7 2.7 0 1.5-1.2 2.6-2.7 2.7zM217.3 30.5c-11.2-.6-20.3-7.5-23.7-18-.8-2.4-1.2-5-1.2-7.5 0-.8.3-1.5.9-2.1.6-.5 1.1-1.1 1.6-1.6 2.1-2.3 5.6-1.1 6.5 1.5.5 1.4.9 2.9 1.2 4.4.3 1.2-.1 2.3-.9 3.3-.2.3-.5.6-.8.7-.7.5-.7 1-.4 1.7 1.8 4.8 5.1 8.1 10 9.7.4.1.7.1 1-.2 1.6-2 3.5-2.5 5.9-1.6.9.3 1.8.5 2.7.8 2 .7 3.3 2.9 2.7 4.9-.2.5-.5 1-.9 1.5s-.9.9-1.4 1.4c-.9.9-2 1.3-3.2 1.1z"/><g><path class="st0" d="M41.2 18.4L45.9 8h3.3l-4.6 10.2h6.9V21H41.2v-2.6zm6.2-4.1h2.9v9h-2.9v-9zM54.8 22.4c-.8-.8-1.2-1.8-1.2-3.2v-7c0-1.4.4-2.4 1.2-3.2.8-.8 1.9-1.1 3.4-1.1s2.6.4 3.4 1.1 1.2 1.8 1.2 3.2v7c0 1.4-.4 2.4-1.2 3.2-.8.8-1.9 1.1-3.4 1.1-1.4 0-2.6-.4-3.4-1.1zm4.7-2.3c.3-.4.4-1 .4-1.7v-5.5c0-.7-.1-1.3-.4-1.7-.3-.4-.7-.6-1.3-.6s-1 .2-1.3.6c-.3.4-.4 1-.4 1.7v5.5c0 .7.1 1.3.4 1.7.3.4.7.6 1.3.6s1.1-.2 1.3-.6zM66.3 22.4c-.8-.8-1.2-1.8-1.2-3.2v-7c0-1.4.4-2.4 1.2-3.2.8-.8 1.9-1.1 3.4-1.1s2.6.4 3.4 1.1 1.2 1.8 1.2 3.2v7c0 1.4-.4 2.4-1.2 3.2-.8.8-1.9 1.1-3.4 1.1s-2.6-.4-3.4-1.1zm4.7-2.3c.3-.4.4-1 .4-1.7v-5.5c0-.7-.1-1.3-.4-1.7-.3-.4-.7-.6-1.3-.6s-1 .2-1.3.6c-.3.4-.4 1-.4 1.7v5.5c0 .7.1 1.3.4 1.7.3.4.7.6 1.3.6s1.1-.2 1.3-.6zM84.7 16.5v2.8h-7.5v-2.8h7.5zM89.2 23c-.7-.4-1.2-.9-1.5-1.6-.4-.7-.5-1.5-.5-2.5 0-.6.1-1.1.2-1.8.1-.6.3-1.2.6-1.9 0-.1.1-.2.1-.3 0-.1.1-.2.1-.3L91.3 8h3.3l-3.7 7.6-.7-.4c.2-.3.4-.6.8-.8.3-.2.7-.3 1.2-.3.8 0 1.6.2 2.2.5.6.4 1.1.9 1.4 1.6.3.7.5 1.5.5 2.5s-.2 1.8-.5 2.5c-.4.7-.9 1.2-1.5 1.6-.7.4-1.5.5-2.4.5-1.3.2-2.1 0-2.7-.3zm3.6-2.7c.3-.3.4-.7.4-1.3 0-.6-.1-1.1-.4-1.5-.3-.3-.7-.5-1.2-.5s-.9.2-1.2.5c-.3.4-.4.9-.4 1.5 0 .5.1 1 .4 1.3.3.3.7.4 1.2.4s.9-.1 1.2-.4zM102.6 23.4h-2.9v-12l-1.9.7v-3l2.3-1h2.5v15.3zM107.8 23c-.7-.4-1.3-.8-1.7-1.5-.4-.6-.6-1.4-.6-2.2V19c0-.8.2-1.5.6-2.2s1-1.2 1.7-1.5c-.6-.3-1.1-.7-1.5-1.3-.4-.5-.5-1.1-.5-1.8v-.4c0-.8.2-1.5.6-2.1s.9-1.1 1.6-1.4c.7-.3 1.5-.5 2.4-.5s1.7.2 2.4.5 1.2.8 1.6 1.4.6 1.3.6 2.1v.4c0 .6-.2 1.2-.6 1.8s-.9 1-1.5 1.2c.7.4 1.3.9 1.7 1.5.4.7.6 1.4.6 2.2v.3c0 .9-.2 1.6-.6 2.2-.4.6-1 1.1-1.7 1.5s-1.6.5-2.6.5c-.9.1-1.7-.1-2.5-.4zm3.6-2.5c.3-.2.5-.4.7-.7s.2-.6.2-1v-.1c0-.3-.1-.6-.2-.9-.2-.3-.4-.5-.7-.6-.3-.1-.6-.2-1-.2s-.7.1-1 .2c-.3.1-.5.3-.7.6s-.2.6-.2.9v.2c0 .4.1.7.2 1 .2.3.4.5.7.7.3.2.6.2 1 .2.4-.1.7-.1 1-.3zm-.1-6.6c.2-.1.4-.3.6-.6.1-.3.2-.6.2-.9v-.1c0-.3-.1-.6-.2-.8-.1-.2-.3-.4-.6-.6-.2-.1-.5-.2-.9-.2-.3 0-.6.1-.9.2-.2.1-.4.3-.6.6-.1.2-.2.5-.2.9v.2c0 .3.1.6.2.9.1.3.3.5.6.6.2.1.5.2.9.2.3-.1.6-.2.9-.4zM125.4 16.5v2.8h-7.5v-2.8h7.5zM132 23.4h-2.9v-12l-1.9.7v-3l2.3-1h2.5v15.3zM137.9 23.5s-.4-.2-1.1-.5c-.7-.3-1.3-.8-1.7-1.5s-.7-1.4-.7-2.3h3c0 .3.1.6.3.8.1.2.3.4.6.5s.5.2.8.2c.5 0 1-.2 1.3-.5.3-.3.4-.7.4-1.3v-.4c0-.6-.1-1-.4-1.3-.2-.3-.6-.5-1-.5H138V14h1.3c.4 0 .6-.1.8-.4.2-.3.3-.7.3-1.2v-.3c0-.5-.1-.8-.3-1.1-.2-.3-.5-.4-.9-.4-.3 0-.5.1-.7.2-.2.1-.4.3-.5.6-.1.3-.3.6-.3.9h-3c.1-.9.3-1.7.8-2.4.4-.7 1-1.2 1.6-1.5s1.4-.5 2.3-.5c1.4 0 2.4.3 3.1 1 .7.7 1.1 1.7 1.1 2.9v.5c0 .7-.2 1.3-.5 1.9s-.9.9-1.5 1.2c.7.2 1.3.6 1.7 1.2s.6 1.4.6 2.3v.5c0 .9-.2 1.7-.5 2.3-.4.6-.9 1.1-1.5 1.4-.7.3-1.5.5-2.4.5-1.1-.1-1.6-.1-1.6-.1zM151.6 15.7l.5.4c-.2.3-.4.6-.8.7-.4.2-.8.2-1.3.2-.8 0-1.5-.2-2-.6-.6-.4-1-.9-1.4-1.6-.3-.7-.5-1.5-.5-2.4 0-1 .2-1.8.5-2.5.4-.7.9-1.2 1.5-1.6.7-.4 1.5-.5 2.4-.5.9 0 1.7.2 2.4.6.7.4 1.2.9 1.5 1.6.4.7.5 1.6.5 2.6 0 .5-.1 1.1-.2 1.7-.1.6-.4 1.2-.6 1.9 0 .1-.1.2-.1.3 0 .1-.1.2-.1.3l-2.7 6.6h-3.1l3.5-7.7zm.2-1.8c.3-.3.4-.8.4-1.4 0-.6-.1-1-.4-1.3-.3-.3-.7-.5-1.2-.5s-.9.2-1.2.5c-.3.3-.4.8-.4 1.3 0 .6.1 1.1.4 1.4.3.3.7.5 1.2.5.6 0 .9-.2 1.2-.5zM159.8 23c-.7-.4-1.2-.9-1.6-1.6-.4-.7-.6-1.5-.7-2.5h2.9c.1.6.2 1 .5 1.3.3.3.7.5 1.1.5.5 0 .9-.2 1.2-.5.3-.3.4-.8.4-1.4v-1.3c0-.6-.1-1.1-.4-1.4-.2-.3-.6-.5-1-.5s-.8.1-1.1.3c-.3.2-.5.5-.6.9h-2.7V8h8.2v2.8h-5.3v2.7c.2-.2.5-.4.9-.5.4-.1.8-.2 1.1-.2.8 0 1.5.2 2 .5.6.4 1 .9 1.3 1.6.3.7.4 1.5.4 2.5v1.3c0 1-.2 1.8-.5 2.5-.4.7-.9 1.2-1.5 1.6s-1.5.6-2.4.6c-.8.1-1.5-.1-2.2-.4z"/></g><g><path class="st0" d="M237.5 23.4h-2.9v-12l-1.9.7v-3l2.3-1h2.5v15.3zM242.7 23c-.7-.4-1.3-.8-1.7-1.5-.4-.6-.6-1.4-.6-2.2V19c0-.8.2-1.5.6-2.2s1-1.2 1.7-1.5c-.6-.3-1.1-.7-1.5-1.3-.4-.5-.5-1.1-.5-1.8v-.4c0-.8.2-1.5.6-2.1s.9-1.1 1.6-1.4c.7-.3 1.5-.5 2.4-.5s1.7.2 2.4.5 1.2.8 1.6 1.4c.4.6.6 1.3.6 2.1v.4c0 .6-.2 1.2-.6 1.8s-.9 1-1.5 1.2c.7.4 1.3.9 1.7 1.5.4.7.6 1.4.6 2.2v.3c0 .9-.2 1.6-.6 2.2-.4.6-1 1.1-1.7 1.5s-1.6.5-2.6.5-1.8-.1-2.5-.4zm3.6-2.5c.3-.2.5-.4.7-.7s.2-.6.2-1v-.1c0-.3-.1-.6-.2-.9-.2-.3-.4-.5-.7-.6-.3-.1-.6-.2-1-.2s-.7.1-1 .2c-.3.1-.5.3-.7.6-.2.3-.2.6-.2.9v.2c0 .4.1.7.2 1 .2.3.4.5.7.7.3.2.6.2 1 .2.4-.1.7-.1 1-.3zm-.2-6.6c.2-.1.4-.3.6-.6.1-.3.2-.6.2-.9v-.1c0-.3-.1-.6-.2-.8-.1-.2-.3-.4-.6-.6-.3-.1-.5-.2-.9-.2-.3 0-.6.1-.9.2-.3.1-.4.3-.6.6s-.2.5-.2.9v.2c0 .3.1.6.2.9.1.3.3.5.6.6.3.1.5.2.9.2.4-.1.7-.2.9-.4zM254.9 23c-.7-.4-1.3-.8-1.7-1.5-.4-.6-.6-1.4-.6-2.2V19c0-.8.2-1.5.6-2.2s1-1.2 1.7-1.5c-.6-.3-1.1-.7-1.5-1.3-.4-.5-.5-1.1-.5-1.8v-.4c0-.8.2-1.5.6-2.1.4-.6.9-1.1 1.6-1.4.7-.3 1.5-.5 2.4-.5.9 0 1.7.2 2.4.5s1.2.8 1.6 1.4.6 1.3.6 2.1v.4c0 .6-.2 1.2-.6 1.8-.4.5-.9 1-1.5 1.2.7.4 1.3.9 1.7 1.5.4.7.6 1.4.6 2.2v.3c0 .9-.2 1.6-.6 2.2-.4.6-1 1.1-1.7 1.5s-1.6.5-2.6.5c-1 .1-1.8-.1-2.5-.4zm3.5-2.5c.3-.2.5-.4.7-.7.2-.3.2-.6.2-1v-.1c0-.3-.1-.6-.2-.9-.2-.3-.4-.5-.7-.6-.3-.1-.6-.2-1-.2s-.7.1-1 .2c-.3.1-.5.3-.7.6s-.2.6-.2.9v.2c0 .4.1.7.2 1 .2.3.4.5.7.7.3.2.6.2 1 .2s.7-.1 1-.3zm-.1-6.6c.2-.1.4-.3.6-.6.1-.3.2-.6.2-.9v-.1c0-.3-.1-.6-.2-.8-.1-.2-.3-.4-.6-.6-.2-.1-.5-.2-.9-.2s-.6.1-.9.2c-.3.1-.4.3-.6.6s-.2.5-.2.9v.2c0 .3.1.6.2.9.1.3.3.5.6.6.2.1.5.2.9.2s.6-.2.9-.4zM272.5 16.5v2.8H265v-2.8h7.5zM279 23.4h-2.9v-12l-1.9.7v-3l2.3-1h2.5v15.3zM283.2 22.4c-.8-.8-1.2-1.8-1.2-3.2v-7c0-1.4.4-2.4 1.2-3.2.8-.8 1.9-1.1 3.4-1.1s2.6.4 3.4 1.1 1.2 1.8 1.2 3.2v7c0 1.4-.4 2.4-1.2 3.2s-1.9 1.1-3.4 1.1c-1.4 0-2.6-.4-3.4-1.1zm4.7-2.3c.3-.4.4-1 .4-1.7v-5.5c0-.7-.1-1.3-.4-1.7-.3-.4-.7-.6-1.3-.6s-1 .2-1.3.6c-.3.4-.4 1-.4 1.7v5.5c0 .7.1 1.3.4 1.7.3.4.7.6 1.3.6s1.1-.2 1.3-.6zM296.3 23c-.7-.4-1.2-.9-1.6-1.6-.4-.7-.6-1.5-.7-2.5h2.9c.1.6.2 1 .5 1.3.3.3.7.5 1.1.5.5 0 .9-.2 1.2-.5.3-.3.4-.8.4-1.4v-1.3c0-.6-.1-1.1-.4-1.4s-.6-.5-1-.5-.8.1-1.1.3c-.3.2-.5.5-.6.9h-2.7V8h8.2v2.8h-5.3v2.7c.2-.2.5-.4.9-.5.4-.1.8-.2 1.1-.2.8 0 1.5.2 2 .5.6.4 1 .9 1.3 1.6.3.7.4 1.5.4 2.5v1.3c0 1-.2 1.8-.5 2.5-.4.7-.9 1.2-1.5 1.6-.7.4-1.5.6-2.4.6-.8.1-1.6-.1-2.2-.4zM308.6 23.5s-.4-.2-1.1-.5c-.7-.3-1.3-.8-1.7-1.5-.4-.6-.7-1.4-.7-2.3h3c0 .3.1.6.3.8.1.2.3.4.6.5.2.1.5.2.8.2.5 0 1-.2 1.3-.5.3-.3.4-.7.4-1.3v-.4c0-.6-.1-1-.4-1.3s-.6-.5-1-.5h-1.3V14h1.3c.4 0 .6-.1.8-.4.2-.3.3-.7.3-1.2v-.3c0-.5-.1-.8-.3-1.1-.2-.3-.5-.4-.9-.4-.3 0-.5.1-.7.2-.2.1-.4.3-.5.6-.1.3-.3.6-.3.9h-3c.1-.9.3-1.7.8-2.4.4-.7 1-1.2 1.6-1.5s1.4-.5 2.3-.5c1.4 0 2.4.3 3.1 1 .7.7 1.1 1.7 1.1 2.9v.5c0 .7-.2 1.3-.5 1.9-.4.5-.9.9-1.5 1.2.7.2 1.3.6 1.7 1.2s.6 1.4.6 2.3v.5c0 .9-.2 1.7-.5 2.3-.4.6-.9 1.1-1.5 1.4-.7.3-1.5.5-2.4.5-1.2-.1-1.7-.1-1.7-.1zM324.8 16.5v2.8h-7.5v-2.8h7.5zM335.1 9.9l-3.4 13.4h-3.1l3.3-12.5h-2.6v2.3h-2.9V8h8.8v1.9zM339.9 23c-.7-.4-1.2-.9-1.6-1.6-.4-.7-.6-1.5-.7-2.5h2.9c.1.6.2 1 .5 1.3.3.3.7.5 1.1.5.5 0 .9-.2 1.2-.5.3-.3.4-.8.4-1.4v-1.3c0-.6-.1-1.1-.4-1.4-.2-.3-.6-.5-1-.5s-.8.1-1.1.3c-.3.2-.5.5-.6.9H338V8h8.2v2.8h-5.3v2.7c.2-.2.5-.4.9-.5.4-.1.8-.2 1.1-.2.8 0 1.5.2 2 .5.6.4 1 .9 1.3 1.6.3.7.4 1.5.4 2.5v1.3c0 1-.2 1.8-.5 2.5-.4.7-.9 1.2-1.5 1.6s-1.5.6-2.4.6c-.9.1-1.6-.1-2.3-.4zM351.7 23c-.7-.4-1.2-.9-1.6-1.6-.4-.7-.6-1.5-.7-2.5h2.9c.1.6.2 1 .5 1.3.3.3.7.5 1.1.5.5 0 .9-.2 1.2-.5.3-.3.4-.8.4-1.4v-1.3c0-.6-.1-1.1-.4-1.4-.2-.3-.6-.5-1-.5s-.8.1-1.1.3c-.3.2-.5.5-.6.9h-2.7V8h8.2v2.8h-5.3v2.7c.2-.2.5-.4.9-.5.4-.1.8-.2 1.1-.2.8 0 1.5.2 2 .5.6.4 1 .9 1.3 1.6.3.7.4 1.5.4 2.5v1.3c0 1-.2 1.8-.5 2.5-.4.7-.9 1.2-1.5 1.6s-1.5.6-2.4.6c-.8.1-1.6-.1-2.2-.4zM362.3 22.4c-.8-.8-1.2-1.8-1.2-3.2v-7c0-1.4.4-2.4 1.2-3.2.8-.8 1.9-1.1 3.4-1.1s2.6.4 3.4 1.1 1.2 1.8 1.2 3.2v7c0 1.4-.4 2.4-1.2 3.2-.8.8-1.9 1.1-3.4 1.1s-2.6-.4-3.4-1.1zm4.7-2.3c.3-.4.4-1 .4-1.7v-5.5c0-.7-.1-1.3-.4-1.7-.3-.4-.7-.6-1.3-.6s-1 .2-1.3.6c-.3.4-.4 1-.4 1.7v5.5c0 .7.1 1.3.4 1.7.3.4.7.6 1.3.6s1.1-.2 1.3-.6z"/></g></svg>