<svg xmlns="http://www.w3.org/2000/svg" xmlns:xlink="http://www.w3.org/1999/xlink" viewBox="0 0 20 20"><defs><style>.cls-1{fill:#e6e7e8;}.cls-2,.cls-7{fill:#1c75bc;}.cls-3{clip-path:url(#clip-path);}.cls-4,.cls-5{fill:#a7a9ac;}.cls-5,.cls-6,.cls-7{fill-rule:evenodd;}.cls-6,.cls-8{fill:#fff;}.cls-9{fill:#2e416c;}.cls-10{fill:#7b97bc;}</style><clipPath id="clip-path"><path id="SVGID" class="cls-1" d="M19.23,10A9.23,9.23,0,1,1,10,.79,9.22,9.22,0,0,1,19.23,10Z"/></clipPath></defs><title>td</title><g id="图层_2" data-name="图层 2"><g id="图层_3" data-name="图层 3"><path class="cls-2" d="M20,10A10,10,0,1,1,10,0,10,10,0,0,1,20,10Z"/><path id="SVGID-2" data-name="SVGID" class="cls-1" d="M19.23,10A9.23,9.23,0,1,1,10,.79,9.22,9.22,0,0,1,19.23,10Z"/><g class="cls-3"><path class="cls-4" d="M8.44,15.37a2.49,2.49,0,0,0-.61-.81A5.6,5.6,0,0,1,6.55,14c-.16-.12-.16-.53-.12-.91a2.78,2.78,0,0,0,1.63-2.68A2.57,2.57,0,0,0,5.78,7.66a2.57,2.57,0,0,0-2.27,2.79,2.77,2.77,0,0,0,1.66,2.69c0,.37,0,.78-.11.9a5.82,5.82,0,0,1-1.29.52,2.49,2.49,0,0,0-.61.81L3,15.7l.49.73s.18,3.17.66,3.17H7.5c.47,0,.66-3.17.66-3.17l.45-.5Z"/><path class="cls-5" d="M14.24,6.82a2.9,2.9,0,0,1-4.86,1,.21.21,0,0,0-.22-.07l-.94.17c-.09,0-.31.07-.34,0s0-.16.12-.35l0,0,.58-1a.3.3,0,0,0,.05-.21A2.81,2.81,0,0,1,8.75,5a2.9,2.9,0,0,1,3.31-2A3,3,0,0,1,14.24,6.82Z"/><path class="cls-6" d="M14.46,6.23A3,3,0,0,1,9.4,7.41a.22.22,0,0,0-.24-.06c-.33.07-.65.15-1,.2-.1,0-.32.09-.36,0s0-.17.11-.37l0-.06c.2-.34.4-.69.59-1a.36.36,0,0,0,0-.23A3.26,3.26,0,0,1,8.63,4.5a3,3,0,1,1,5.83,1.73Z"/><path class="cls-7" d="M10.54,5.4A.45.45,0,1,1,10.09,5,.45.45,0,0,1,10.54,5.4Z"/><path class="cls-7" d="M13.58,5.4A.45.45,0,1,1,13.13,5,.45.45,0,0,1,13.58,5.4Z"/><path class="cls-7" d="M12.08,5.4A.45.45,0,1,1,11.63,5,.45.45,0,0,1,12.08,5.4Z"/><path class="cls-8" d="M8,15.14a2.54,2.54,0,0,0-.63-.85A5.76,5.76,0,0,1,6,13.75c-.17-.12-.16-.55-.12-.94A2.88,2.88,0,0,0,7.55,10,2.67,2.67,0,0,0,5.2,7.14,2.68,2.68,0,0,0,2.84,10a2.87,2.87,0,0,0,1.72,2.78c0,.39,0,.81-.12.93a5.76,5.76,0,0,1-1.33.54,2.54,2.54,0,0,0-.63.85l-.14.34.51.68s.19,3,.68,3H7c.49,0,.69-3,.69-3l.46-.49Z"/><path class="cls-9" d="M11.12,13.16a1,1,0,0,0-.26-.35,2.22,2.22,0,0,1-.55-.23c-.07-.05-.07-.23-.05-.39A1.21,1.21,0,0,0,11,11a1.11,1.11,0,0,0-1-1.21A1.11,1.11,0,0,0,9,11a1.19,1.19,0,0,0,.71,1.16c0,.16,0,.33-.05.38a2.22,2.22,0,0,1-.55.23,1.12,1.12,0,0,0-.26.35l-.06.14.21.24s.08,1,.29,1h1.43c.2,0,.28-1,.28-1l.2-.18Z"/><path class="cls-9" d="M14.49,13.16a1.09,1.09,0,0,0-.27-.35,2.22,2.22,0,0,1-.55-.23c-.07-.05-.07-.23-.05-.39a1.21,1.21,0,0,0,.7-1.15,1.11,1.11,0,0,0-1-1.21,1.11,1.11,0,0,0-1,1.21,1.19,1.19,0,0,0,.72,1.16c0,.16,0,.33-.05.38a2.25,2.25,0,0,1-.56.23,1.12,1.12,0,0,0-.26.35l-.06.14.21.24s.08,1,.29,1h1.43c.2,0,.29-1,.29-1l.19-.18Z"/><path class="cls-9" d="M17.9,13.16a1,1,0,0,0-.26-.35,2.22,2.22,0,0,1-.55-.23c-.07-.05-.07-.23-.05-.39a1.21,1.21,0,0,0,.7-1.15,1.11,1.11,0,0,0-1-1.21,1.11,1.11,0,0,0-1,1.21,1.19,1.19,0,0,0,.71,1.16c0,.16,0,.33,0,.38a2.22,2.22,0,0,1-.55.23,1.12,1.12,0,0,0-.26.35l-.06.14.21.24s.08,1,.29,1H17.5c.2,0,.28-1,.28-1l.2-.18Z"/><path class="cls-10" d="M13,14.68a1.29,1.29,0,0,0-.29-.39,2.71,2.71,0,0,1-.61-.24C12,14,12,13.8,12,13.62a1.32,1.32,0,0,0,.77-1.27A1.22,1.22,0,0,0,11.72,11a1.22,1.22,0,0,0-1.08,1.32,1.3,1.3,0,0,0,.79,1.27c0,.18,0,.37-.06.43a2.68,2.68,0,0,1-.6.24,1.14,1.14,0,0,0-.29.39l-.06.16.23.28s.08,1.1.31,1.1h1.57c.23,0,.31-1.1.31-1.1l.22-.21Z"/><path class="cls-10" d="M16.39,14.68a1.29,1.29,0,0,0-.29-.39,2.71,2.71,0,0,1-.61-.24c-.07-.06-.07-.25-.05-.43a1.32,1.32,0,0,0,.76-1.27A1.21,1.21,0,0,0,15.13,11a1.22,1.22,0,0,0-1.08,1.32,1.29,1.29,0,0,0,.79,1.27c0,.18,0,.37-.06.43a2.71,2.71,0,0,1-.61.24,1.17,1.17,0,0,0-.28.39l-.06.16.22.28s.09,1.1.32,1.1h1.57c.22,0,.31-1.1.31-1.1l.22-.21Z"/></g></g></g></svg>