<svg xmlns="http://www.w3.org/2000/svg" xmlns:xlink="http://www.w3.org/1999/xlink" viewBox="0 0 20 20"><defs><style>.cls-1{fill:#e6e7e8;}.cls-2{fill:#1c75bc;}.cls-3{clip-path:url(#clip-path);}.cls-4{fill:#a7a9ac;}.cls-5{fill:#7b97bc;}.cls-6{fill:#fff;}</style><clipPath id="clip-path"><path id="SVGID" class="cls-1" d="M19.23,10A9.23,9.23,0,1,1,10,.79,9.22,9.22,0,0,1,19.23,10Z"/></clipPath></defs><title>yf</title><g id="图层_2" data-name="图层 2"><g id="图层_2-2" data-name="图层 2"><path class="cls-2" d="M20,10A10,10,0,1,1,10,0,10,10,0,0,1,20,10Z"/><path id="SVGID-2" data-name="SVGID" class="cls-1" d="M19.23,10A9.23,9.23,0,1,1,10,.79,9.22,9.22,0,0,1,19.23,10Z"/><g class="cls-3"><path class="cls-4" d="M3.38,11.41s.46,1,1,1.16a21.63,21.63,0,0,0,3.94.14,1.1,1.1,0,0,0,1,1.17,2.42,2.42,0,0,0,2.27,2c1.9,0,2.25-2.13,2.25-2.13s3,.66,3-1.74S3.38,11.41,3.38,11.41Z"/><path class="cls-5" d="M15.62,9.41l-.08,0h0l0,0,.07-.06A1.36,1.36,0,0,0,14,7.1l0,0-.07,0,0-.08,0,0a1.38,1.38,0,0,0,.16-.64,1.36,1.36,0,0,0-1.37-1.36,1.38,1.38,0,0,0-1.22.75l0,.07,0,.1V5.78a1.39,1.39,0,0,0-2.77,0,.54.54,0,0,0,0,.08V6l0-.09,0-.08a1.38,1.38,0,0,0-1.22-.75A1.36,1.36,0,0,0,6.08,6.41a1.44,1.44,0,0,0,.17.66h0l.06.1-.07-.06h0a1.34,1.34,0,0,0-.76-.24A1.36,1.36,0,0,0,4.1,8.24a1.35,1.35,0,0,0,.58,1.11l.07.05.11.06-.12,0H4.59a1.37,1.37,0,1,0,0,2.73H8.94l0,.72c0,.25.45.46.74.46h.06a.85.85,0,0,0,.23,0v.49a1.44,1.44,0,0,0,1.44,1.44h.32a1.35,1.35,0,0,0,1.33-1.44v-.52H15a2,2,0,0,0,.61-3.86Z"/><rect class="cls-6" x="11.14" y="7.61" width="0.44" height="0.44" transform="translate(-1.83 3.79) rotate(-17.56)"/><polygon class="cls-6" points="12.11 7.93 12.54 7.98 12.59 7.54 12.16 7.49 12.11 7.93"/><rect class="cls-6" x="13.08" y="7.83" width="0.44" height="0.44" transform="translate(-0.41 15.38) rotate(-59.33)"/><rect class="cls-6" x="13.82" y="8.51" width="0.44" height="0.44" transform="translate(-2.46 9.73) rotate(-35.36)"/><rect class="cls-6" x="14.21" y="9.43" width="0.44" height="0.44" transform="translate(-1.63 3.07) rotate(-11.51)"/><rect class="cls-6" x="14.2" y="10.43" width="0.44" height="0.44" transform="translate(0.91 22.42) rotate(-77.49)"/><rect class="cls-6" x="13.79" y="11.34" width="0.44" height="0.44" transform="translate(-3.62 15.92) rotate(-53.43)"/><rect class="cls-6" x="13.04" y="12" width="0.44" height="0.44" transform="translate(-4.29 8.1) rotate(-29.45)"/><rect class="cls-6" x="12.09" y="12.3" width="0.44" height="0.44" transform="translate(-1.12 1.21) rotate(-5.39)"/><polygon class="cls-6" points="11.59 12.27 11.18 12.13 11.04 12.54 11.45 12.68 11.59 12.27"/><rect class="cls-6" x="10.23" y="11.67" width="0.44" height="0.44" transform="translate(-5.38 11.52) rotate(-47.36)"/><rect class="cls-6" x="9.65" y="10.86" width="0.44" height="0.44" transform="translate(-3.6 4.85) rotate(-23.49)"/><polygon class="cls-6" points="9.89 10.32 9.89 9.88 9.46 9.88 9.45 10.32 9.89 10.32"/><rect class="cls-6" x="9.67" y="8.9" width="0.44" height="0.44" transform="translate(-2.53 14.31) rotate(-65.38)"/><rect class="cls-6" x="10.27" y="8.1" width="0.44" height="0.44" transform="translate(-2.88 9.05) rotate(-41.54)"/><path class="cls-6" d="M10,10.79A2.21,2.21,0,1,0,11.41,8,2.21,2.21,0,0,0,10,10.79Zm1.48-.47a.66.66,0,0,1,1.26-.4.66.66,0,1,1-1.26.4Z"/><path class="cls-2" d="M10.82,10.52a1.32,1.32,0,1,0,2.51-.79,1.32,1.32,0,0,0-2.51.79Zm.63-.2a.64.64,0,0,1,.43-.82.66.66,0,0,1,.83.43.67.67,0,0,1-.43.82A.66.66,0,0,1,11.45,10.32Z"/><rect class="cls-6" x="7.49" y="7.3" width="0.41" height="0.41" transform="translate(-1.9 2.65) rotate(-17.43)"/><rect class="cls-6" x="8.56" y="7.4" width="0.41" height="0.41" transform="translate(-2.02 11.87) rotate(-62.52)"/><rect class="cls-6" x="9.25" y="8.22" width="0.41" height="0.41" transform="translate(-2.1 3.25) rotate(-17.56)"/><rect class="cls-6" x="9.16" y="9.29" width="0.41" height="0.41" transform="translate(-3.4 13.37) rotate(-62.29)"/><rect class="cls-6" x="8.33" y="9.99" width="0.41" height="0.41" transform="translate(-2.65 3.01) rotate(-17.37)"/><rect class="cls-6" x="7.26" y="9.89" width="0.41" height="0.41" transform="translate(-4.94 12.06) rotate(-62.51)"/><rect class="cls-6" x="6.57" y="9.07" width="0.41" height="0.41" transform="translate(-2.47 2.46) rotate(-17.48)"/><rect class="cls-6" x="6.67" y="7.99" width="0.41" height="0.41" transform="translate(-3.57 10.53) rotate(-62.61)"/><path class="cls-6" d="M6.85,9.25a1.33,1.33,0,1,0,.87-1.67A1.32,1.32,0,0,0,6.85,9.25ZM7.62,9a.52.52,0,0,1,1-.31.52.52,0,1,1-1,.31Z"/></g></g></g></svg>